<svg id="Layer_1" data-name="Layer 1" xmlns="http://www.w3.org/2000/svg" viewBox="0 0 135.42 45.14"><defs><style>.cls-1{fill:#3d3935;}</style></defs><title>site-logo</title><path class="cls-1" d="M15.41,40.68H9.16l16-20.34V16.29H.79V26.88H4.46c.29-5.25,2-6.84,6.79-6.84h4.58L0,40.43v3.83H26.41V32.88H22.28C22,38.64,20.53,40.68,15.41,40.68Z"/><path class="cls-1" d="M73.85,32c3.75,0,6.41-.33,8.37-1.92a7.17,7.17,0,0,0,2.67-5.75c0-5.71-3.54-8-11-8H44.91v3.55A8.25,8.25,0,0,1,46,19.79c2.7,0,3,1,3,4.34V35.47c0,3.88-1.55,5.5-5.76,5.5-3.62,0-4.79-1.83-4.79-5.84V23.92c0-3.13.09-4.13,2.84-4.13.41,0,.87,0,1.41.05V16.29H26.83v4H28c2.29,0,2.66,1.17,2.66,4.25V36.34c0,5.55,4.05,8.8,11.09,8.8,7.71,0,11.71-3.21,11.71-9.13V24.17c0-2,0-3.18.33-3.59.43-.62,1.45-.65,3.14-.65l1.17,0c2.29,0,2.54.38,2.54,2.42v15.8c0,2-.25,2.42-2.54,2.42H56.6v3.66H73.1V40.6h-2c-2.3,0-2.59-.38-2.59-2.42V32ZM68.51,20H71.1c3.83,0,5.58,1.08,5.58,4,0,3.34-1.62,4.38-5.58,4.38H68.51Z"/><path class="cls-1" d="M126.17,26.88c-5.75-1.42-8.84-1.33-8.84-4,0-1.92,1.63-3.25,4.54-3.25,4.63,0,7.75,2.46,8.26,6.62H134V16H130.5l-.83,2c-2.13-1.63-4.92-2.34-8.42-2.34-7.29,0-11.38,3.34-11.38,8.93a7.36,7.36,0,0,0,2.84,6c2,1.62,5,2.33,8.83,3.25s6.25,1.13,6.25,3.88c0,2-1.83,3.33-5,3.33a8.35,8.35,0,0,1-8.67-7.38h-3.75v7h-1.24c-1.75,0-2.25-.67-2.87-2.59L99.34,16.29H91l-7.17,21.6c-.67,2-1,2.71-3.25,2.71h-1v3.66H91.84V40.6H90.47c-1.63,0-2.25-.13-2.25-1a3.72,3.72,0,0,1,.21-1.13l1-3.21h8l1.08,3.46a3.94,3.94,0,0,1,.21.88c0,.83-.71,1-2.54,1H95.09v3.66h15.24v0h3.38l1.12-1.7a16.31,16.31,0,0,0,9,2.5c7.25,0,11.59-3.63,11.59-9.09C135.42,31.17,132.42,28.42,126.17,26.88Zm-35.5,4.75,2.88-8.83,2.79,8.83Z"/><path class="cls-1" d="M91.9,6.5A6.43,6.43,0,0,1,85.54,13H49.88a6.43,6.43,0,0,1-6.36-6.5h0A6.43,6.43,0,0,1,49.88,0H85.54A6.43,6.43,0,0,1,91.9,6.5ZM58.15,5.62c-.29-2.47-2.49-2.91-4.22-2.91-2.6,0-4.23,1.13-4.23,3.79s1.63,3.78,4.23,3.78c2.28,0,4-.86,4.24-2.95H56.05a1.9,1.9,0,0,1-2,1.59A2.16,2.16,0,0,1,51.77,6.5,2.15,2.15,0,0,1,54,4.08a1.9,1.9,0,0,1,2,1.54Zm7.7,4.46h2.09L64.79,2.91H62.44l-3.15,7.17h2.1L62,8.61h3.29ZM64.74,7.3H62.49l1.13-2.84Zm4.94,2.78h1.95V7.21H75.8V5.85H71.63V4.28h4.46V2.91H69.68Zm8.26,0h6.73V8.72H79.88V7.07h4.51V5.76H79.88V4.28h4.75V2.91H77.94ZM80.29,2.3H81.9L83.34.88H81.18Z"/></svg>